<?xml version="1.0" standalone="no"?>
<!DOCTYPE svg PUBLIC "-//W3C//DTD SVG 20010904//EN"
 "http://www.w3.org/TR/2001/REC-SVG-20010904/DTD/svg10.dtd">
<svg version="1.0" xmlns="http://www.w3.org/2000/svg"
 width="200.000000pt" height="150.000000pt" viewBox="0 0 200.000000 150.000000"
 preserveAspectRatio="xMidYMid meet">
<metadata>
Created by potrace 1.14, written by Peter Selinger 2001-2017
</metadata>
<g transform="translate(0.000000,150.000000) scale(0.100000,-0.100000)"
fill="#000000" stroke="none">
<path d="M0 750 l0 -750 250 0 250 0 0 250 0 250 750 0 750 0 0 500 0 500
-1000 0 -1000 0 0 -750z m1950 500 l0 -230 -950 0 -950 0 0 230 0 230 950 0
950 0 0 -230z m-1460 -500 l0 -230 -240 0 -240 0 0 230 0 230 240 0 240 0 0
-230z m500 0 l0 -230 -240 0 -240 0 0 230 0 230 240 0 240 0 0 -230z m500 0
l0 -230 -240 0 -240 0 0 230 0 230 240 0 240 0 0 -230z m500 0 l0 -230 -240 0
-240 0 0 230 0 230 240 0 240 0 0 -230z m-1500 -500 l0 -230 -240 0 -240 0 0
230 0 230 240 0 240 0 0 -230z"/>
</g>
</svg>
