solid OpenSCAD_Model
  facet normal 0 0 -1
    outer loop
      vertex 0.492249 -0.0114994 -0.0999994
      vertex 0.477249 0.0112495 -0.0999994
      vertex 0.478499 0.0124998 -0.0999994
    endloop
  endfacet
  facet normal 0 0 -1
    outer loop
      vertex 0.2575 -0.0114994 -0.0999994
      vertex 0.477249 0.0112495 -0.0999994
      vertex 0.492249 -0.0114994 -0.0999994
    endloop
  endfacet
  facet normal 0 0 -1
    outer loop
      vertex 0.2435 -0.0127497 -0.0999994
      vertex 0.256249 -0.0127497 -0.0999994
      vertex 0.2435 -0.237499 -0.0999994
    endloop
  endfacet
  facet normal 0 0 -1
    outer loop
      vertex 0.2429 -0.0120993 -0.0999994
      vertex 0.256249 -0.0127497 -0.0999994
      vertex 0.2435 -0.0127497 -0.0999994
    endloop
  endfacet
  facet normal 0 0 -1
    outer loop
      vertex 0.256249 -0.0127497 -0.0999994
      vertex 0.2429 -0.0120993 -0.0999994
      vertex 0.2575 -0.0114994 -0.0999994
    endloop
  endfacet
  facet normal 0 0 -1
    outer loop
      vertex 0.242249 -0.0114994 -0.0999994
      vertex 0.2575 -0.0114994 -0.0999994
      vertex 0.2429 -0.0120993 -0.0999994
    endloop
  endfacet
  facet normal 0 0 -1
    outer loop
      vertex 0.2575 -0.0114994 -0.0999994
      vertex 0.242249 -0.0114994 -0.0999994
      vertex 0.477249 0.0112495 -0.0999994
    endloop
  endfacet
  facet normal 0 0 -1
    outer loop
      vertex 0.00749969 -0.0114994 -0.0999994
      vertex 0.477249 0.0112495 -0.0999994
      vertex 0.242249 -0.0114994 -0.0999994
    endloop
  endfacet
  facet normal 0 0 -1
    outer loop
      vertex -0.00649929 -0.0126991 -0.0999994
      vertex 0.00624943 -0.0127497 -0.0999994
      vertex -0.00649929 -0.237499 -0.0999994
    endloop
  endfacet
  facet normal 0 0 -1
    outer loop
      vertex -0.00709915 -0.0120993 -0.0999994
      vertex 0.00624943 -0.0127497 -0.0999994
      vertex -0.00649929 -0.0126991 -0.0999994
    endloop
  endfacet
  facet normal 0 0 -1
    outer loop
      vertex 0.00624943 -0.0127497 -0.0999994
      vertex -0.00709915 -0.0120993 -0.0999994
      vertex 0.00749969 -0.0114994 -0.0999994
    endloop
  endfacet
  facet normal 0 0 -1
    outer loop
      vertex -0.00774956 -0.0114994 -0.0999994
      vertex 0.00749969 -0.0114994 -0.0999994
      vertex -0.00709915 -0.0120993 -0.0999994
    endloop
  endfacet
  facet normal 0 0 -1
    outer loop
      vertex 0.00749969 -0.0114994 -0.0999994
      vertex -0.00774956 -0.0114994 -0.0999994
      vertex 0.477249 0.0112495 -0.0999994
    endloop
  endfacet
  facet normal 0 0 -1
    outer loop
      vertex -0.472449 0.0112495 -0.0999994
      vertex -0.00774956 -0.0114994 -0.0999994
      vertex -0.24245 -0.0114994 -0.0999994
    endloop
  endfacet
  facet normal 0 0 -1
    outer loop
      vertex -0.256499 -0.0127497 -0.0999994
      vertex -0.24375 -0.0125494 -0.0999994
      vertex -0.256499 -0.237499 -0.0999994
    endloop
  endfacet
  facet normal 0 0 -1
    outer loop
      vertex -0.257099 -0.0120993 -0.0999994
      vertex -0.24375 -0.0125494 -0.0999994
      vertex -0.256499 -0.0127497 -0.0999994
    endloop
  endfacet
  facet normal 0 0 -1
    outer loop
      vertex -0.25775 -0.0114994 -0.0999994
      vertex -0.24375 -0.0125494 -0.0999994
      vertex -0.257099 -0.0120993 -0.0999994
    endloop
  endfacet
  facet normal 0 0 -1
    outer loop
      vertex -0.24375 -0.0125494 -0.0999994
      vertex -0.25775 -0.0114994 -0.0999994
      vertex -0.24245 -0.0114994 -0.0999994
    endloop
  endfacet
  facet normal 0 0 -1
    outer loop
      vertex -0.472449 0.0112495 -0.0999994
      vertex -0.24245 -0.0114994 -0.0999994
      vertex -0.25775 -0.0114994 -0.0999994
    endloop
  endfacet
  facet normal 0 0 -1
    outer loop
      vertex -0.00774956 -0.0114994 -0.0999994
      vertex -0.472449 0.0112495 -0.0999994
      vertex 0.477249 0.0112495 -0.0999994
    endloop
  endfacet
  facet normal 0 0 -1
    outer loop
      vertex -0.49375 -0.0127497 -0.0999994
      vertex -0.473749 0.0122995 -0.0999994
      vertex -0.492499 -0.0114994 -0.0999994
    endloop
  endfacet
  facet normal -0 0 -1
    outer loop
      vertex -0.472449 0.0112495 -0.0999994
      vertex -0.492499 -0.0114994 -0.0999994
      vertex -0.473749 0.0122995 -0.0999994
    endloop
  endfacet
  facet normal 0 0 -1
    outer loop
      vertex -0.492499 -0.0114994 -0.0999994
      vertex -0.472449 0.0112495 -0.0999994
      vertex -0.25775 -0.0114994 -0.0999994
    endloop
  endfacet
  facet normal 0 0 -1
    outer loop
      vertex 0.4935 -0.0127497 -0.0999994
      vertex 0.5 -0.25 -0.0999994
      vertex 0.4935 -0.237499 -0.0999994
    endloop
  endfacet
  facet normal 0 0 -1
    outer loop
      vertex 0.5 -0.25 -0.0999994
      vertex 0.492249 -0.23875 -0.0999994
      vertex 0.4935 -0.237499 -0.0999994
    endloop
  endfacet
  facet normal 0 0 -1
    outer loop
      vertex 0.5 -0.25 -0.0999994
      vertex 0.2575 -0.23875 -0.0999994
      vertex 0.492249 -0.23875 -0.0999994
    endloop
  endfacet
  facet normal 0 0 -1
    outer loop
      vertex 0.256249 -0.237499 -0.0999994
      vertex 0.2435 -0.237499 -0.0999994
      vertex 0.256249 -0.0127497 -0.0999994
    endloop
  endfacet
  facet normal 0 0 -1
    outer loop
      vertex 0.2575 -0.23875 -0.0999994
      vertex 0.2435 -0.237499 -0.0999994
      vertex 0.256249 -0.237499 -0.0999994
    endloop
  endfacet
  facet normal 0 0 -1
    outer loop
      vertex 0.2575 -0.23875 -0.0999994
      vertex 0.242249 -0.23875 -0.0999994
      vertex 0.2435 -0.237499 -0.0999994
    endloop
  endfacet
  facet normal 0 0 -1
    outer loop
      vertex 0.5 -0.25 -0.0999994
      vertex 0.242249 -0.23875 -0.0999994
      vertex 0.2575 -0.23875 -0.0999994
    endloop
  endfacet
  facet normal 0 0 -1
    outer loop
      vertex 0.5 -0.25 -0.0999994
      vertex 0.00749969 -0.23875 -0.0999994
      vertex 0.242249 -0.23875 -0.0999994
    endloop
  endfacet
  facet normal 0 0 -1
    outer loop
      vertex 0.00624943 -0.237499 -0.0999994
      vertex -0.00649929 -0.237499 -0.0999994
      vertex 0.00624943 -0.0127497 -0.0999994
    endloop
  endfacet
  facet normal 0 0 -1
    outer loop
      vertex 0.00749969 -0.23875 -0.0999994
      vertex -0.00649929 -0.237499 -0.0999994
      vertex 0.00624943 -0.237499 -0.0999994
    endloop
  endfacet
  facet normal 0 0 -1
    outer loop
      vertex 0.00749969 -0.23875 -0.0999994
      vertex -0.00774956 -0.23875 -0.0999994
      vertex -0.00649929 -0.237499 -0.0999994
    endloop
  endfacet
  facet normal 0 0 -1
    outer loop
      vertex 0.5 -0.25 -0.0999994
      vertex -0.00774956 -0.23875 -0.0999994
      vertex 0.00749969 -0.23875 -0.0999994
    endloop
  endfacet
  facet normal 0 0 -1
    outer loop
      vertex -0.5 -0.25 -0.0999994
      vertex -0.00774956 -0.23875 -0.0999994
      vertex 0.5 -0.25 -0.0999994
    endloop
  endfacet
  facet normal 0 0 -1
    outer loop
      vertex -0.24375 -0.2377 -0.0999994
      vertex -0.256499 -0.237499 -0.0999994
      vertex -0.24375 -0.0125494 -0.0999994
    endloop
  endfacet
  facet normal 0 0 -1
    outer loop
      vertex -0.25775 -0.23875 -0.0999994
      vertex -0.24375 -0.2377 -0.0999994
      vertex -0.24245 -0.23875 -0.0999994
    endloop
  endfacet
  facet normal -0 0 -1
    outer loop
      vertex -0.24375 -0.2377 -0.0999994
      vertex -0.25775 -0.23875 -0.0999994
      vertex -0.256499 -0.237499 -0.0999994
    endloop
  endfacet
  facet normal -0 0 -1
    outer loop
      vertex -0.00774956 -0.23875 -0.0999994
      vertex -0.5 -0.25 -0.0999994
      vertex -0.24245 -0.23875 -0.0999994
    endloop
  endfacet
  facet normal -0 0 -1
    outer loop
      vertex -0.24245 -0.23875 -0.0999994
      vertex -0.5 -0.25 -0.0999994
      vertex -0.25775 -0.23875 -0.0999994
    endloop
  endfacet
  facet normal -0 0 -1
    outer loop
      vertex -0.49375 -0.237499 -0.0999994
      vertex -0.5 -0.25 -0.0999994
      vertex -0.49375 -0.0127497 -0.0999994
    endloop
  endfacet
  facet normal -0 0 -1
    outer loop
      vertex -0.492499 -0.23875 -0.0999994
      vertex -0.5 -0.25 -0.0999994
      vertex -0.49375 -0.237499 -0.0999994
    endloop
  endfacet
  facet normal -0 0 -1
    outer loop
      vertex -0.25775 -0.23875 -0.0999994
      vertex -0.5 -0.25 -0.0999994
      vertex -0.492499 -0.23875 -0.0999994
    endloop
  endfacet
  facet normal 0 0 -1
    outer loop
      vertex 0.5 -0.25 -0.0999994
      vertex 0.4935 -0.0127497 -0.0999994
      vertex 0.5 0.25 -0.0999994
    endloop
  endfacet
  facet normal 0 0 -1
    outer loop
      vertex 0.478499 0.0124998 -0.0999994
      vertex 0.4935 -0.0127497 -0.0999994
      vertex 0.4929 -0.0120993 -0.0999994
    endloop
  endfacet
  facet normal 0 0 -1
    outer loop
      vertex 0.478499 0.0124998 -0.0999994
      vertex 0.4929 -0.0120993 -0.0999994
      vertex 0.492249 -0.0114994 -0.0999994
    endloop
  endfacet
  facet normal 0 0 -1
    outer loop
      vertex 0.4935 -0.0127497 -0.0999994
      vertex 0.478499 0.0124998 -0.0999994
      vertex 0.5 0.25 -0.0999994
    endloop
  endfacet
  facet normal 0 0 -1
    outer loop
      vertex 0.47845 0.2373 -0.0999994
      vertex 0.5 0.25 -0.0999994
      vertex 0.478499 0.0124998 -0.0999994
    endloop
  endfacet
  facet normal 0 0 -1
    outer loop
      vertex 0.477249 0.2385 -0.0999994
      vertex 0.5 0.25 -0.0999994
      vertex 0.47845 0.2373 -0.0999994
    endloop
  endfacet
  facet normal 0 0 -1
    outer loop
      vertex -0.472449 0.2385 -0.0999994
      vertex 0.5 0.25 -0.0999994
      vertex 0.477249 0.2385 -0.0999994
    endloop
  endfacet
  facet normal -0 0 -1
    outer loop
      vertex -0.473749 0.0122995 -0.0999994
      vertex -0.49375 -0.0127497 -0.0999994
      vertex -0.5 0.25 -0.0999994
    endloop
  endfacet
  facet normal 0 0 -1
    outer loop
      vertex -0.472449 0.2385 -0.0999994
      vertex -0.5 0.25 -0.0999994
      vertex 0.5 0.25 -0.0999994
    endloop
  endfacet
  facet normal 0 0 -1
    outer loop
      vertex -0.473749 0.23745 -0.0999994
      vertex -0.5 0.25 -0.0999994
      vertex -0.472449 0.2385 -0.0999994
    endloop
  endfacet
  facet normal 0 0 -1
    outer loop
      vertex -0.473749 0.0122995 -0.0999994
      vertex -0.5 0.25 -0.0999994
      vertex -0.473749 0.23745 -0.0999994
    endloop
  endfacet
  facet normal 0 0 -1
    outer loop
      vertex -0.5 0.25 -0.0999994
      vertex -0.49375 -0.0127497 -0.0999994
      vertex -0.5 -0.25 -0.0999994
    endloop
  endfacet
  facet normal 0 0 1
    outer loop
      vertex 0.5 0.25 0.0999994
      vertex 0.4935 -0.0127497 0.0999994
      vertex 0.5 -0.25 0.0999994
    endloop
  endfacet
  facet normal -0 0 1
    outer loop
      vertex 0.478499 0.0124998 0.0999994
      vertex 0.4935 -0.0127497 0.0999994
      vertex 0.5 0.25 0.0999994
    endloop
  endfacet
  facet normal 0 0 1
    outer loop
      vertex 0.4935 -0.0127497 0.0999994
      vertex 0.478499 0.0124998 0.0999994
      vertex 0.4929 -0.0120993 0.0999994
    endloop
  endfacet
  facet normal 0 0 1
    outer loop
      vertex 0.4929 -0.0120993 0.0999994
      vertex 0.478499 0.0124998 0.0999994
      vertex 0.492249 -0.0114994 0.0999994
    endloop
  endfacet
  facet normal 0 0 1
    outer loop
      vertex 0.5 0.25 0.0999994
      vertex 0.47845 0.2373 0.0999994
      vertex 0.478499 0.0124998 0.0999994
    endloop
  endfacet
  facet normal 0 0 1
    outer loop
      vertex 0.5 0.25 0.0999994
      vertex 0.477249 0.2385 0.0999994
      vertex 0.47845 0.2373 0.0999994
    endloop
  endfacet
  facet normal 0 0 1
    outer loop
      vertex 0.5 0.25 0.0999994
      vertex -0.472449 0.2385 0.0999994
      vertex 0.477249 0.2385 0.0999994
    endloop
  endfacet
  facet normal 0 0 1
    outer loop
      vertex -0.5 0.25 0.0999994
      vertex -0.473749 0.0122995 0.0999994
      vertex -0.473749 0.23745 0.0999994
    endloop
  endfacet
  facet normal 0 -0 1
    outer loop
      vertex -0.49375 -0.0127497 0.0999994
      vertex -0.473749 0.0122995 0.0999994
      vertex -0.5 0.25 0.0999994
    endloop
  endfacet
  facet normal 0 0 1
    outer loop
      vertex -0.5 -0.25 0.0999994
      vertex -0.49375 -0.0127497 0.0999994
      vertex -0.5 0.25 0.0999994
    endloop
  endfacet
  facet normal 0 0 1
    outer loop
      vertex -0.473749 0.0122995 0.0999994
      vertex -0.49375 -0.0127497 0.0999994
      vertex -0.492499 -0.0114994 0.0999994
    endloop
  endfacet
  facet normal 0 0 1
    outer loop
      vertex -0.472449 0.2385 0.0999994
      vertex -0.5 0.25 0.0999994
      vertex -0.473749 0.23745 0.0999994
    endloop
  endfacet
  facet normal -0 0 1
    outer loop
      vertex -0.5 0.25 0.0999994
      vertex -0.472449 0.2385 0.0999994
      vertex 0.5 0.25 0.0999994
    endloop
  endfacet
  facet normal -0 0 1
    outer loop
      vertex 0.4935 -0.237499 0.0999994
      vertex 0.5 -0.25 0.0999994
      vertex 0.4935 -0.0127497 0.0999994
    endloop
  endfacet
  facet normal -0 0 1
    outer loop
      vertex 0.492249 -0.23875 0.0999994
      vertex 0.5 -0.25 0.0999994
      vertex 0.4935 -0.237499 0.0999994
    endloop
  endfacet
  facet normal -0 0 1
    outer loop
      vertex 0.2575 -0.23875 0.0999994
      vertex 0.5 -0.25 0.0999994
      vertex 0.492249 -0.23875 0.0999994
    endloop
  endfacet
  facet normal 0 0 1
    outer loop
      vertex 0.2435 -0.237499 0.0999994
      vertex 0.256249 -0.237499 0.0999994
      vertex 0.2435 -0.0127497 0.0999994
    endloop
  endfacet
  facet normal -0 0 1
    outer loop
      vertex 0.2435 -0.237499 0.0999994
      vertex 0.2575 -0.23875 0.0999994
      vertex 0.256249 -0.237499 0.0999994
    endloop
  endfacet
  facet normal 0 0 1
    outer loop
      vertex 0.242249 -0.23875 0.0999994
      vertex 0.2575 -0.23875 0.0999994
      vertex 0.2435 -0.237499 0.0999994
    endloop
  endfacet
  facet normal -0 0 1
    outer loop
      vertex 0.242249 -0.23875 0.0999994
      vertex 0.5 -0.25 0.0999994
      vertex 0.2575 -0.23875 0.0999994
    endloop
  endfacet
  facet normal -0 0 1
    outer loop
      vertex 0.00749969 -0.23875 0.0999994
      vertex 0.5 -0.25 0.0999994
      vertex 0.242249 -0.23875 0.0999994
    endloop
  endfacet
  facet normal 0 0 1
    outer loop
      vertex -0.00649929 -0.237499 0.0999994
      vertex 0.00624943 -0.237499 0.0999994
      vertex -0.00649929 -0.0126991 0.0999994
    endloop
  endfacet
  facet normal -0 0 1
    outer loop
      vertex -0.00649929 -0.237499 0.0999994
      vertex 0.00749969 -0.23875 0.0999994
      vertex 0.00624943 -0.237499 0.0999994
    endloop
  endfacet
  facet normal 0 0 1
    outer loop
      vertex -0.00774956 -0.23875 0.0999994
      vertex 0.00749969 -0.23875 0.0999994
      vertex -0.00649929 -0.237499 0.0999994
    endloop
  endfacet
  facet normal -0 0 1
    outer loop
      vertex -0.00774956 -0.23875 0.0999994
      vertex 0.5 -0.25 0.0999994
      vertex 0.00749969 -0.23875 0.0999994
    endloop
  endfacet
  facet normal 0 0 1
    outer loop
      vertex -0.5 -0.25 0.0999994
      vertex -0.00774956 -0.23875 0.0999994
      vertex -0.24245 -0.23875 0.0999994
    endloop
  endfacet
  facet normal -0 0 1
    outer loop
      vertex -0.256499 -0.237499 0.0999994
      vertex -0.24375 -0.2377 0.0999994
      vertex -0.256499 -0.0127497 0.0999994
    endloop
  endfacet
  facet normal 0 0 1
    outer loop
      vertex -0.25775 -0.23875 0.0999994
      vertex -0.24375 -0.2377 0.0999994
      vertex -0.256499 -0.237499 0.0999994
    endloop
  endfacet
  facet normal 0 0 1
    outer loop
      vertex -0.24375 -0.2377 0.0999994
      vertex -0.25775 -0.23875 0.0999994
      vertex -0.24245 -0.23875 0.0999994
    endloop
  endfacet
  facet normal 0 0 1
    outer loop
      vertex -0.5 -0.25 0.0999994
      vertex -0.24245 -0.23875 0.0999994
      vertex -0.25775 -0.23875 0.0999994
    endloop
  endfacet
  facet normal 0 0 1
    outer loop
      vertex -0.5 -0.25 0.0999994
      vertex -0.25775 -0.23875 0.0999994
      vertex -0.492499 -0.23875 0.0999994
    endloop
  endfacet
  facet normal 0 0 1
    outer loop
      vertex -0.00774956 -0.23875 0.0999994
      vertex -0.5 -0.25 0.0999994
      vertex 0.5 -0.25 0.0999994
    endloop
  endfacet
  facet normal 0 0 1
    outer loop
      vertex -0.49375 -0.237499 0.0999994
      vertex -0.5 -0.25 0.0999994
      vertex -0.492499 -0.23875 0.0999994
    endloop
  endfacet
  facet normal 0 0 1
    outer loop
      vertex -0.49375 -0.0127497 0.0999994
      vertex -0.5 -0.25 0.0999994
      vertex -0.49375 -0.237499 0.0999994
    endloop
  endfacet
  facet normal -0 0 1
    outer loop
      vertex 0.477249 0.0112495 0.0999994
      vertex 0.492249 -0.0114994 0.0999994
      vertex 0.478499 0.0124998 0.0999994
    endloop
  endfacet
  facet normal 0 0 1
    outer loop
      vertex 0.477249 0.0112495 0.0999994
      vertex 0.2575 -0.0114994 0.0999994
      vertex 0.492249 -0.0114994 0.0999994
    endloop
  endfacet
  facet normal 0 0 1
    outer loop
      vertex 0.256249 -0.0127497 0.0999994
      vertex 0.2435 -0.0127497 0.0999994
      vertex 0.256249 -0.237499 0.0999994
    endloop
  endfacet
  facet normal -0 0 1
    outer loop
      vertex 0.2429 -0.0120993 0.0999994
      vertex 0.256249 -0.0127497 0.0999994
      vertex 0.2575 -0.0114994 0.0999994
    endloop
  endfacet
  facet normal 0 0 1
    outer loop
      vertex 0.242249 -0.0114994 0.0999994
      vertex 0.2575 -0.0114994 0.0999994
      vertex 0.477249 0.0112495 0.0999994
    endloop
  endfacet
  facet normal 0 0 1
    outer loop
      vertex 0.256249 -0.0127497 0.0999994
      vertex 0.2429 -0.0120993 0.0999994
      vertex 0.2435 -0.0127497 0.0999994
    endloop
  endfacet
  facet normal 0 0 1
    outer loop
      vertex 0.2575 -0.0114994 0.0999994
      vertex 0.242249 -0.0114994 0.0999994
      vertex 0.2429 -0.0120993 0.0999994
    endloop
  endfacet
  facet normal 0 0 1
    outer loop
      vertex 0.477249 0.0112495 0.0999994
      vertex 0.00749969 -0.0114994 0.0999994
      vertex 0.242249 -0.0114994 0.0999994
    endloop
  endfacet
  facet normal 0 0 1
    outer loop
      vertex 0.00624943 -0.0127497 0.0999994
      vertex -0.00649929 -0.0126991 0.0999994
      vertex 0.00624943 -0.237499 0.0999994
    endloop
  endfacet
  facet normal -0 0 1
    outer loop
      vertex -0.00709915 -0.0120993 0.0999994
      vertex 0.00624943 -0.0127497 0.0999994
      vertex 0.00749969 -0.0114994 0.0999994
    endloop
  endfacet
  facet normal 0 0 1
    outer loop
      vertex 0.00624943 -0.0127497 0.0999994
      vertex -0.00709915 -0.0120993 0.0999994
      vertex -0.00649929 -0.0126991 0.0999994
    endloop
  endfacet
  facet normal 0 0 1
    outer loop
      vertex -0.00774956 -0.0114994 0.0999994
      vertex 0.00749969 -0.0114994 0.0999994
      vertex 0.477249 0.0112495 0.0999994
    endloop
  endfacet
  facet normal 0 0 1
    outer loop
      vertex 0.00749969 -0.0114994 0.0999994
      vertex -0.00774956 -0.0114994 0.0999994
      vertex -0.00709915 -0.0120993 0.0999994
    endloop
  endfacet
  facet normal -0 0 1
    outer loop
      vertex -0.472449 0.0112495 0.0999994
      vertex -0.00774956 -0.0114994 0.0999994
      vertex 0.477249 0.0112495 0.0999994
    endloop
  endfacet
  facet normal 0 0 1
    outer loop
      vertex -0.24375 -0.0125494 0.0999994
      vertex -0.256499 -0.0127497 0.0999994
      vertex -0.24375 -0.2377 0.0999994
    endloop
  endfacet
  facet normal -0 0 1
    outer loop
      vertex -0.25775 -0.0114994 0.0999994
      vertex -0.24375 -0.0125494 0.0999994
      vertex -0.24245 -0.0114994 0.0999994
    endloop
  endfacet
  facet normal 0 0 1
    outer loop
      vertex -0.24375 -0.0125494 0.0999994
      vertex -0.257099 -0.0120993 0.0999994
      vertex -0.256499 -0.0127497 0.0999994
    endloop
  endfacet
  facet normal 0 0 1
    outer loop
      vertex -0.24375 -0.0125494 0.0999994
      vertex -0.25775 -0.0114994 0.0999994
      vertex -0.257099 -0.0120993 0.0999994
    endloop
  endfacet
  facet normal 0 0 1
    outer loop
      vertex -0.00774956 -0.0114994 0.0999994
      vertex -0.472449 0.0112495 0.0999994
      vertex -0.24245 -0.0114994 0.0999994
    endloop
  endfacet
  facet normal 0 0 1
    outer loop
      vertex -0.24245 -0.0114994 0.0999994
      vertex -0.472449 0.0112495 0.0999994
      vertex -0.25775 -0.0114994 0.0999994
    endloop
  endfacet
  facet normal 0 0 1
    outer loop
      vertex -0.472449 0.0112495 0.0999994
      vertex -0.492499 -0.0114994 0.0999994
      vertex -0.25775 -0.0114994 0.0999994
    endloop
  endfacet
  facet normal 0 0 1
    outer loop
      vertex -0.492499 -0.0114994 0.0999994
      vertex -0.472449 0.0112495 0.0999994
      vertex -0.473749 0.0122995 0.0999994
    endloop
  endfacet
  facet normal 0 1 -0
    outer loop
      vertex 0.5 0.25 -0.0999994
      vertex -0.5 0.25 0.0999994
      vertex 0.5 0.25 0.0999994
    endloop
  endfacet
  facet normal 0 1 0
    outer loop
      vertex -0.5 0.25 0.0999994
      vertex 0.5 0.25 -0.0999994
      vertex -0.5 0.25 -0.0999994
    endloop
  endfacet
  facet normal -1 0 0
    outer loop
      vertex -0.5 -0.25 -0.0999994
      vertex -0.5 0.25 0.0999994
      vertex -0.5 0.25 -0.0999994
    endloop
  endfacet
  facet normal -1 -0 0
    outer loop
      vertex -0.5 0.25 0.0999994
      vertex -0.5 -0.25 -0.0999994
      vertex -0.5 -0.25 0.0999994
    endloop
  endfacet
  facet normal 0 -1 0
    outer loop
      vertex -0.5 -0.25 -0.0999994
      vertex 0.5 -0.25 0.0999994
      vertex -0.5 -0.25 0.0999994
    endloop
  endfacet
  facet normal 0 -1 -0
    outer loop
      vertex 0.5 -0.25 0.0999994
      vertex -0.5 -0.25 -0.0999994
      vertex 0.5 -0.25 -0.0999994
    endloop
  endfacet
  facet normal 1 -0 0
    outer loop
      vertex 0.5 -0.25 0.0999994
      vertex 0.5 0.25 -0.0999994
      vertex 0.5 0.25 0.0999994
    endloop
  endfacet
  facet normal 1 0 0
    outer loop
      vertex 0.5 0.25 -0.0999994
      vertex 0.5 -0.25 0.0999994
      vertex 0.5 -0.25 -0.0999994
    endloop
  endfacet
  facet normal 0.628377 0.777909 -0
    outer loop
      vertex -0.472449 0.0112495 -0.0999994
      vertex -0.473749 0.0122995 0.0999994
      vertex -0.472449 0.0112495 0.0999994
    endloop
  endfacet
  facet normal 0.628377 0.777909 0
    outer loop
      vertex -0.473749 0.0122995 0.0999994
      vertex -0.472449 0.0112495 -0.0999994
      vertex -0.473749 0.0122995 -0.0999994
    endloop
  endfacet
  facet normal 1 -0 0
    outer loop
      vertex -0.473749 0.0122995 0.0999994
      vertex -0.473749 0.23745 -0.0999994
      vertex -0.473749 0.23745 0.0999994
    endloop
  endfacet
  facet normal 1 0 0
    outer loop
      vertex -0.473749 0.23745 -0.0999994
      vertex -0.473749 0.0122995 0.0999994
      vertex -0.473749 0.0122995 -0.0999994
    endloop
  endfacet
  facet normal 0.628377 -0.777909 0
    outer loop
      vertex -0.473749 0.23745 -0.0999994
      vertex -0.472449 0.2385 0.0999994
      vertex -0.473749 0.23745 0.0999994
    endloop
  endfacet
  facet normal 0.628377 -0.777909 0
    outer loop
      vertex -0.472449 0.2385 0.0999994
      vertex -0.473749 0.23745 -0.0999994
      vertex -0.472449 0.2385 -0.0999994
    endloop
  endfacet
  facet normal 0 -1 0
    outer loop
      vertex -0.472449 0.2385 -0.0999994
      vertex 0.477249 0.2385 0.0999994
      vertex -0.472449 0.2385 0.0999994
    endloop
  endfacet
  facet normal 0 -1 -0
    outer loop
      vertex 0.477249 0.2385 0.0999994
      vertex -0.472449 0.2385 -0.0999994
      vertex 0.477249 0.2385 -0.0999994
    endloop
  endfacet
  facet normal -0.706826 -0.707388 0
    outer loop
      vertex 0.477249 0.2385 -0.0999994
      vertex 0.47845 0.2373 0.0999994
      vertex 0.477249 0.2385 0.0999994
    endloop
  endfacet
  facet normal -0.706826 -0.707388 -0
    outer loop
      vertex 0.47845 0.2373 0.0999994
      vertex 0.477249 0.2385 -0.0999994
      vertex 0.47845 0.2373 -0.0999994
    endloop
  endfacet
  facet normal -1 -0.000220601 0
    outer loop
      vertex 0.478499 0.0124998 -0.0999994
      vertex 0.47845 0.2373 0.0999994
      vertex 0.47845 0.2373 -0.0999994
    endloop
  endfacet
  facet normal -1 -0.000220601 0
    outer loop
      vertex 0.47845 0.2373 0.0999994
      vertex 0.478499 0.0124998 -0.0999994
      vertex 0.478499 0.0124998 0.0999994
    endloop
  endfacet
  facet normal -0.707107 0.707107 0
    outer loop
      vertex 0.477249 0.0112495 -0.0999994
      vertex 0.478499 0.0124998 0.0999994
      vertex 0.478499 0.0124998 -0.0999994
    endloop
  endfacet
  facet normal -0.707107 0.707107 0
    outer loop
      vertex 0.478499 0.0124998 0.0999994
      vertex 0.477249 0.0112495 -0.0999994
      vertex 0.477249 0.0112495 0.0999994
    endloop
  endfacet
  facet normal 0 1 -0
    outer loop
      vertex 0.477249 0.0112495 -0.0999994
      vertex -0.472449 0.0112495 0.0999994
      vertex 0.477249 0.0112495 0.0999994
    endloop
  endfacet
  facet normal 0 1 0
    outer loop
      vertex -0.472449 0.0112495 0.0999994
      vertex 0.477249 0.0112495 -0.0999994
      vertex -0.472449 0.0112495 -0.0999994
    endloop
  endfacet
  facet normal 0.707107 0.707107 0
    outer loop
      vertex -0.492499 -0.23875 0.0999994
      vertex -0.49375 -0.237499 -0.0999994
      vertex -0.49375 -0.237499 0.0999994
    endloop
  endfacet
  facet normal 0.707107 0.707107 0
    outer loop
      vertex -0.49375 -0.237499 -0.0999994
      vertex -0.492499 -0.23875 0.0999994
      vertex -0.492499 -0.23875 -0.0999994
    endloop
  endfacet
  facet normal 1 -0 0
    outer loop
      vertex -0.49375 -0.237499 0.0999994
      vertex -0.49375 -0.0127497 -0.0999994
      vertex -0.49375 -0.0127497 0.0999994
    endloop
  endfacet
  facet normal 1 0 0
    outer loop
      vertex -0.49375 -0.0127497 -0.0999994
      vertex -0.49375 -0.237499 0.0999994
      vertex -0.49375 -0.237499 -0.0999994
    endloop
  endfacet
  facet normal 0.707107 -0.707107 0
    outer loop
      vertex -0.49375 -0.0127497 0.0999994
      vertex -0.492499 -0.0114994 -0.0999994
      vertex -0.492499 -0.0114994 0.0999994
    endloop
  endfacet
  facet normal 0.707107 -0.707107 0
    outer loop
      vertex -0.492499 -0.0114994 -0.0999994
      vertex -0.49375 -0.0127497 0.0999994
      vertex -0.49375 -0.0127497 -0.0999994
    endloop
  endfacet
  facet normal 0 -1 0
    outer loop
      vertex -0.492499 -0.0114994 -0.0999994
      vertex -0.25775 -0.0114994 0.0999994
      vertex -0.492499 -0.0114994 0.0999994
    endloop
  endfacet
  facet normal 0 -1 -0
    outer loop
      vertex -0.25775 -0.0114994 0.0999994
      vertex -0.492499 -0.0114994 -0.0999994
      vertex -0.25775 -0.0114994 -0.0999994
    endloop
  endfacet
  facet normal -0.677967 -0.735093 0
    outer loop
      vertex -0.25775 -0.0114994 -0.0999994
      vertex -0.257099 -0.0120993 0.0999994
      vertex -0.25775 -0.0114994 0.0999994
    endloop
  endfacet
  facet normal -0.677967 -0.735093 -0
    outer loop
      vertex -0.257099 -0.0120993 0.0999994
      vertex -0.25775 -0.0114994 -0.0999994
      vertex -0.257099 -0.0120993 -0.0999994
    endloop
  endfacet
  facet normal -0.735093 -0.677967 0
    outer loop
      vertex -0.256499 -0.0127497 -0.0999994
      vertex -0.257099 -0.0120993 0.0999994
      vertex -0.257099 -0.0120993 -0.0999994
    endloop
  endfacet
  facet normal -0.735093 -0.677967 0
    outer loop
      vertex -0.257099 -0.0120993 0.0999994
      vertex -0.256499 -0.0127497 -0.0999994
      vertex -0.256499 -0.0127497 0.0999994
    endloop
  endfacet
  facet normal -1 0 0
    outer loop
      vertex -0.256499 -0.237499 -0.0999994
      vertex -0.256499 -0.0127497 0.0999994
      vertex -0.256499 -0.0127497 -0.0999994
    endloop
  endfacet
  facet normal -1 -0 0
    outer loop
      vertex -0.256499 -0.0127497 0.0999994
      vertex -0.256499 -0.237499 -0.0999994
      vertex -0.256499 -0.237499 0.0999994
    endloop
  endfacet
  facet normal -0.707107 0.707107 0
    outer loop
      vertex -0.25775 -0.23875 -0.0999994
      vertex -0.256499 -0.237499 0.0999994
      vertex -0.256499 -0.237499 -0.0999994
    endloop
  endfacet
  facet normal -0.707107 0.707107 0
    outer loop
      vertex -0.256499 -0.237499 0.0999994
      vertex -0.25775 -0.23875 -0.0999994
      vertex -0.25775 -0.23875 0.0999994
    endloop
  endfacet
  facet normal 0 1 -0
    outer loop
      vertex -0.25775 -0.23875 -0.0999994
      vertex -0.492499 -0.23875 0.0999994
      vertex -0.25775 -0.23875 0.0999994
    endloop
  endfacet
  facet normal 0 1 0
    outer loop
      vertex -0.492499 -0.23875 0.0999994
      vertex -0.25775 -0.23875 -0.0999994
      vertex -0.492499 -0.23875 -0.0999994
    endloop
  endfacet
  facet normal 0.628377 0.777909 -0
    outer loop
      vertex -0.24245 -0.23875 -0.0999994
      vertex -0.24375 -0.2377 0.0999994
      vertex -0.24245 -0.23875 0.0999994
    endloop
  endfacet
  facet normal 0.628377 0.777909 0
    outer loop
      vertex -0.24375 -0.2377 0.0999994
      vertex -0.24245 -0.23875 -0.0999994
      vertex -0.24375 -0.2377 -0.0999994
    endloop
  endfacet
  facet normal 1 -0 0
    outer loop
      vertex -0.24375 -0.2377 0.0999994
      vertex -0.24375 -0.0125494 -0.0999994
      vertex -0.24375 -0.0125494 0.0999994
    endloop
  endfacet
  facet normal 1 0 0
    outer loop
      vertex -0.24375 -0.0125494 -0.0999994
      vertex -0.24375 -0.2377 0.0999994
      vertex -0.24375 -0.2377 -0.0999994
    endloop
  endfacet
  facet normal 0.628377 -0.777909 0
    outer loop
      vertex -0.24375 -0.0125494 -0.0999994
      vertex -0.24245 -0.0114994 0.0999994
      vertex -0.24375 -0.0125494 0.0999994
    endloop
  endfacet
  facet normal 0.628377 -0.777909 0
    outer loop
      vertex -0.24245 -0.0114994 0.0999994
      vertex -0.24375 -0.0125494 -0.0999994
      vertex -0.24245 -0.0114994 -0.0999994
    endloop
  endfacet
  facet normal 0 -1 0
    outer loop
      vertex -0.24245 -0.0114994 -0.0999994
      vertex -0.00774956 -0.0114994 0.0999994
      vertex -0.24245 -0.0114994 0.0999994
    endloop
  endfacet
  facet normal 0 -1 -0
    outer loop
      vertex -0.00774956 -0.0114994 0.0999994
      vertex -0.24245 -0.0114994 -0.0999994
      vertex -0.00774956 -0.0114994 -0.0999994
    endloop
  endfacet
  facet normal -0.677967 -0.735093 0
    outer loop
      vertex -0.00774956 -0.0114994 -0.0999994
      vertex -0.00709915 -0.0120993 0.0999994
      vertex -0.00774956 -0.0114994 0.0999994
    endloop
  endfacet
  facet normal -0.677967 -0.735093 -0
    outer loop
      vertex -0.00709915 -0.0120993 0.0999994
      vertex -0.00774956 -0.0114994 -0.0999994
      vertex -0.00709915 -0.0120993 -0.0999994
    endloop
  endfacet
  facet normal -0.707107 -0.707107 0
    outer loop
      vertex -0.00649929 -0.0126991 -0.0999994
      vertex -0.00709915 -0.0120993 0.0999994
      vertex -0.00709915 -0.0120993 -0.0999994
    endloop
  endfacet
  facet normal -0.707107 -0.707107 0
    outer loop
      vertex -0.00709915 -0.0120993 0.0999994
      vertex -0.00649929 -0.0126991 -0.0999994
      vertex -0.00649929 -0.0126991 0.0999994
    endloop
  endfacet
  facet normal -1 0 0
    outer loop
      vertex -0.00649929 -0.237499 -0.0999994
      vertex -0.00649929 -0.0126991 0.0999994
      vertex -0.00649929 -0.0126991 -0.0999994
    endloop
  endfacet
  facet normal -1 -0 0
    outer loop
      vertex -0.00649929 -0.0126991 0.0999994
      vertex -0.00649929 -0.237499 -0.0999994
      vertex -0.00649929 -0.237499 0.0999994
    endloop
  endfacet
  facet normal -0.707107 0.707107 0
    outer loop
      vertex -0.00774956 -0.23875 -0.0999994
      vertex -0.00649929 -0.237499 0.0999994
      vertex -0.00649929 -0.237499 -0.0999994
    endloop
  endfacet
  facet normal -0.707107 0.707107 0
    outer loop
      vertex -0.00649929 -0.237499 0.0999994
      vertex -0.00774956 -0.23875 -0.0999994
      vertex -0.00774956 -0.23875 0.0999994
    endloop
  endfacet
  facet normal 0 1 -0
    outer loop
      vertex -0.00774956 -0.23875 -0.0999994
      vertex -0.24245 -0.23875 0.0999994
      vertex -0.00774956 -0.23875 0.0999994
    endloop
  endfacet
  facet normal 0 1 0
    outer loop
      vertex -0.24245 -0.23875 0.0999994
      vertex -0.00774956 -0.23875 -0.0999994
      vertex -0.24245 -0.23875 -0.0999994
    endloop
  endfacet
  facet normal 0.707107 0.707107 0
    outer loop
      vertex 0.00749969 -0.23875 0.0999994
      vertex 0.00624943 -0.237499 -0.0999994
      vertex 0.00624943 -0.237499 0.0999994
    endloop
  endfacet
  facet normal 0.707107 0.707107 0
    outer loop
      vertex 0.00624943 -0.237499 -0.0999994
      vertex 0.00749969 -0.23875 0.0999994
      vertex 0.00749969 -0.23875 -0.0999994
    endloop
  endfacet
  facet normal 1 -0 0
    outer loop
      vertex 0.00624943 -0.237499 0.0999994
      vertex 0.00624943 -0.0127497 -0.0999994
      vertex 0.00624943 -0.0127497 0.0999994
    endloop
  endfacet
  facet normal 1 0 0
    outer loop
      vertex 0.00624943 -0.0127497 -0.0999994
      vertex 0.00624943 -0.237499 0.0999994
      vertex 0.00624943 -0.237499 -0.0999994
    endloop
  endfacet
  facet normal 0.707107 -0.707107 0
    outer loop
      vertex 0.00624943 -0.0127497 0.0999994
      vertex 0.00749969 -0.0114994 -0.0999994
      vertex 0.00749969 -0.0114994 0.0999994
    endloop
  endfacet
  facet normal 0.707107 -0.707107 0
    outer loop
      vertex 0.00749969 -0.0114994 -0.0999994
      vertex 0.00624943 -0.0127497 0.0999994
      vertex 0.00624943 -0.0127497 -0.0999994
    endloop
  endfacet
  facet normal 0 -1 0
    outer loop
      vertex 0.00749969 -0.0114994 -0.0999994
      vertex 0.242249 -0.0114994 0.0999994
      vertex 0.00749969 -0.0114994 0.0999994
    endloop
  endfacet
  facet normal 0 -1 -0
    outer loop
      vertex 0.242249 -0.0114994 0.0999994
      vertex 0.00749969 -0.0114994 -0.0999994
      vertex 0.242249 -0.0114994 -0.0999994
    endloop
  endfacet
  facet normal -0.677967 -0.735093 0
    outer loop
      vertex 0.242249 -0.0114994 -0.0999994
      vertex 0.2429 -0.0120993 0.0999994
      vertex 0.242249 -0.0114994 0.0999994
    endloop
  endfacet
  facet normal -0.677967 -0.735093 -0
    outer loop
      vertex 0.2429 -0.0120993 0.0999994
      vertex 0.242249 -0.0114994 -0.0999994
      vertex 0.2429 -0.0120993 -0.0999994
    endloop
  endfacet
  facet normal -0.735093 -0.677967 0
    outer loop
      vertex 0.2435 -0.0127497 -0.0999994
      vertex 0.2429 -0.0120993 0.0999994
      vertex 0.2429 -0.0120993 -0.0999994
    endloop
  endfacet
  facet normal -0.735093 -0.677967 0
    outer loop
      vertex 0.2429 -0.0120993 0.0999994
      vertex 0.2435 -0.0127497 -0.0999994
      vertex 0.2435 -0.0127497 0.0999994
    endloop
  endfacet
  facet normal -1 0 0
    outer loop
      vertex 0.2435 -0.237499 -0.0999994
      vertex 0.2435 -0.0127497 0.0999994
      vertex 0.2435 -0.0127497 -0.0999994
    endloop
  endfacet
  facet normal -1 -0 0
    outer loop
      vertex 0.2435 -0.0127497 0.0999994
      vertex 0.2435 -0.237499 -0.0999994
      vertex 0.2435 -0.237499 0.0999994
    endloop
  endfacet
  facet normal -0.707107 0.707107 0
    outer loop
      vertex 0.242249 -0.23875 -0.0999994
      vertex 0.2435 -0.237499 0.0999994
      vertex 0.2435 -0.237499 -0.0999994
    endloop
  endfacet
  facet normal -0.707107 0.707107 0
    outer loop
      vertex 0.2435 -0.237499 0.0999994
      vertex 0.242249 -0.23875 -0.0999994
      vertex 0.242249 -0.23875 0.0999994
    endloop
  endfacet
  facet normal 0 1 -0
    outer loop
      vertex 0.242249 -0.23875 -0.0999994
      vertex 0.00749969 -0.23875 0.0999994
      vertex 0.242249 -0.23875 0.0999994
    endloop
  endfacet
  facet normal 0 1 0
    outer loop
      vertex 0.00749969 -0.23875 0.0999994
      vertex 0.242249 -0.23875 -0.0999994
      vertex 0.00749969 -0.23875 -0.0999994
    endloop
  endfacet
  facet normal 0.707107 0.707107 0
    outer loop
      vertex 0.2575 -0.23875 0.0999994
      vertex 0.256249 -0.237499 -0.0999994
      vertex 0.256249 -0.237499 0.0999994
    endloop
  endfacet
  facet normal 0.707107 0.707107 0
    outer loop
      vertex 0.256249 -0.237499 -0.0999994
      vertex 0.2575 -0.23875 0.0999994
      vertex 0.2575 -0.23875 -0.0999994
    endloop
  endfacet
  facet normal 1 -0 0
    outer loop
      vertex 0.256249 -0.237499 0.0999994
      vertex 0.256249 -0.0127497 -0.0999994
      vertex 0.256249 -0.0127497 0.0999994
    endloop
  endfacet
  facet normal 1 0 0
    outer loop
      vertex 0.256249 -0.0127497 -0.0999994
      vertex 0.256249 -0.237499 0.0999994
      vertex 0.256249 -0.237499 -0.0999994
    endloop
  endfacet
  facet normal 0.707107 -0.707107 0
    outer loop
      vertex 0.256249 -0.0127497 0.0999994
      vertex 0.2575 -0.0114994 -0.0999994
      vertex 0.2575 -0.0114994 0.0999994
    endloop
  endfacet
  facet normal 0.707107 -0.707107 0
    outer loop
      vertex 0.2575 -0.0114994 -0.0999994
      vertex 0.256249 -0.0127497 0.0999994
      vertex 0.256249 -0.0127497 -0.0999994
    endloop
  endfacet
  facet normal 0 -1 0
    outer loop
      vertex 0.2575 -0.0114994 -0.0999994
      vertex 0.492249 -0.0114994 0.0999994
      vertex 0.2575 -0.0114994 0.0999994
    endloop
  endfacet
  facet normal 0 -1 -0
    outer loop
      vertex 0.492249 -0.0114994 0.0999994
      vertex 0.2575 -0.0114994 -0.0999994
      vertex 0.492249 -0.0114994 -0.0999994
    endloop
  endfacet
  facet normal -0.677967 -0.735093 0
    outer loop
      vertex 0.492249 -0.0114994 -0.0999994
      vertex 0.4929 -0.0120993 0.0999994
      vertex 0.492249 -0.0114994 0.0999994
    endloop
  endfacet
  facet normal -0.677967 -0.735093 -0
    outer loop
      vertex 0.4929 -0.0120993 0.0999994
      vertex 0.492249 -0.0114994 -0.0999994
      vertex 0.4929 -0.0120993 -0.0999994
    endloop
  endfacet
  facet normal -0.735093 -0.677967 0
    outer loop
      vertex 0.4935 -0.0127497 -0.0999994
      vertex 0.4929 -0.0120993 0.0999994
      vertex 0.4929 -0.0120993 -0.0999994
    endloop
  endfacet
  facet normal -0.735093 -0.677967 0
    outer loop
      vertex 0.4929 -0.0120993 0.0999994
      vertex 0.4935 -0.0127497 -0.0999994
      vertex 0.4935 -0.0127497 0.0999994
    endloop
  endfacet
  facet normal -1 0 0
    outer loop
      vertex 0.4935 -0.237499 -0.0999994
      vertex 0.4935 -0.0127497 0.0999994
      vertex 0.4935 -0.0127497 -0.0999994
    endloop
  endfacet
  facet normal -1 -0 0
    outer loop
      vertex 0.4935 -0.0127497 0.0999994
      vertex 0.4935 -0.237499 -0.0999994
      vertex 0.4935 -0.237499 0.0999994
    endloop
  endfacet
  facet normal -0.707107 0.707107 0
    outer loop
      vertex 0.492249 -0.23875 -0.0999994
      vertex 0.4935 -0.237499 0.0999994
      vertex 0.4935 -0.237499 -0.0999994
    endloop
  endfacet
  facet normal -0.707107 0.707107 0
    outer loop
      vertex 0.4935 -0.237499 0.0999994
      vertex 0.492249 -0.23875 -0.0999994
      vertex 0.492249 -0.23875 0.0999994
    endloop
  endfacet
  facet normal 0 1 -0
    outer loop
      vertex 0.492249 -0.23875 -0.0999994
      vertex 0.2575 -0.23875 0.0999994
      vertex 0.492249 -0.23875 0.0999994
    endloop
  endfacet
  facet normal 0 1 0
    outer loop
      vertex 0.2575 -0.23875 0.0999994
      vertex 0.492249 -0.23875 -0.0999994
      vertex 0.2575 -0.23875 -0.0999994
    endloop
  endfacet
endsolid OpenSCAD_Model
